<svg width="128" height="128" viewBox="0 0 128 128" fill="none" xmlns="http://www.w3.org/2000/svg">
<g clip-path="url(#clip0_5_19)">
<rect x="-48.2349" y="42.2749" width="128" height="189.448" transform="rotate(-45 -48.2349 42.2749)" fill="#202D36"/>
<path d="M33.8939 64.5C33.8939 69.0467 34.7739 73.3733 36.5339 77.48C38.2939 81.5133 40.6773 85.07 43.6839 88.15C46.7639 91.1567 50.3206 93.54 54.3539 95.3C58.4606 97.06 62.7873 97.94 67.3339 97.94C71.9539 97.94 76.2439 97.0967 80.204 95.41C84.1639 93.65 87.6839 91.23 90.7639 88.15C92.2306 86.6833 93.954 84.4833 95.934 81.55C96.6673 80.5233 97.694 80.01 99.014 80.01C100.041 80.01 100.921 80.4133 101.654 81.22C102.461 81.9533 102.864 82.8333 102.864 83.86C102.864 84.2267 102.827 84.5567 102.754 84.85C102.681 85.07 102.571 85.3267 102.424 85.62C101.177 88.1133 99.1606 90.7533 96.3739 93.54C92.6339 97.28 88.2706 100.25 83.284 102.45C78.3706 104.577 73.0539 105.64 67.3339 105.64C61.6873 105.64 56.3706 104.577 51.3839 102.45C46.3973 100.25 42.0339 97.28 38.2939 93.54C34.5539 89.8 31.5839 85.4367 29.3839 80.45C27.2573 75.4633 26.1939 70.1467 26.1939 64.5C26.1939 58.8533 27.2573 53.5367 29.3839 48.55C31.5839 43.5633 34.5539 39.2 38.2939 35.46C42.0339 31.72 46.3973 28.7867 51.3839 26.66C56.3706 24.46 61.6873 23.36 67.3339 23.36C73.0539 23.36 78.3706 24.46 83.284 26.66C88.2706 28.7867 92.6339 31.72 96.3739 35.46C99.2339 38.3933 101.287 41.1067 102.534 43.6C102.754 44.1867 102.864 44.7 102.864 45.14C102.864 46.1667 102.461 47.0833 101.654 47.89C100.921 48.6233 100.041 48.99 99.014 48.99C98.2073 48.99 97.5473 48.77 97.034 48.33C96.5206 47.8167 95.9706 47.1567 95.3839 46.35C93.6239 44.0767 92.0839 42.3167 90.7639 41.07C87.6839 37.99 84.1639 35.57 80.204 33.81C76.2439 32.05 71.9539 31.17 67.3339 31.17C62.7873 31.17 58.4606 32.05 54.3539 33.81C50.3206 35.57 46.7639 37.99 43.6839 41.07C40.6773 44.0767 38.2939 47.5967 36.5339 51.63C34.7739 55.6633 33.8939 59.9533 33.8939 64.5Z" fill="white"/>
<path d="M48 64.5C48 55.9396 54.9396 49 63.5 49H64.5C73.0604 49 80 55.9396 80 64.5V64.5V64.5C80 73.0604 73.0604 80 64.5 80H63.5C54.9396 80 48 73.0604 48 64.5V64.5Z" fill="white"/>
</g>
<defs>
<clipPath id="clip0_5_19">
<rect width="128" height="128" fill="white"/>
</clipPath>
</defs>
</svg>
